<mxfile host="app.diagrams.net" modified="2023-02-18T15:00:28.838Z" agent="5.0 (Windows NT 10.0; Win64; x64) AppleWebKit/537.36 (KHTML, like Gecko) Chrome/110.0.0.0 Safari/537.36" etag="S8N5XWTzNOY9IPMfYi3p" version="20.8.20" type="github">
  <diagram name="Page-1" id="e3a06f82-3646-2815-327d-82caf3d4e204">
    <mxGraphModel dx="2440" dy="1322" grid="1" gridSize="10" guides="1" tooltips="1" connect="1" arrows="1" fold="1" page="1" pageScale="1.5" pageWidth="1169" pageHeight="826" background="none" math="0" shadow="0">
      <root>
        <mxCell id="0" style=";html=1;" />
        <mxCell id="1" style=";html=1;" parent="0" />
        <mxCell id="6a7d8f32e03d9370-61" value="内网" style="whiteSpace=wrap;html=1;fillColor=#f8cecc;fontSize=14;strokeColor=none;verticalAlign=top;" parent="1" vertex="1">
          <mxGeometry x="1501" y="81" width="493" height="360" as="geometry" />
        </mxCell>
        <mxCell id="6a7d8f32e03d9370-57" value="&lt;h2&gt;&lt;br&gt;&lt;/h2&gt;" style="whiteSpace=wrap;html=1;fillColor=#FFD470;gradientColor=none;fontSize=14;strokeColor=none;verticalAlign=top;" parent="1" vertex="1">
          <mxGeometry x="190" y="98" width="401" height="572" as="geometry" />
        </mxCell>
        <mxCell id="6a7d8f32e03d9370-4" value="Client" style="verticalLabelPosition=bottom;aspect=fixed;html=1;verticalAlign=top;strokeColor=none;shape=mxgraph.citrix.desktop;fillColor=#66B2FF;gradientColor=#0066CC;fontSize=14;" parent="1" vertex="1">
          <mxGeometry x="814" y="262.00000000000006" width="89" height="98" as="geometry" />
        </mxCell>
        <mxCell id="6a7d8f32e03d9370-5" value="Client" style="verticalLabelPosition=bottom;aspect=fixed;html=1;verticalAlign=top;strokeColor=none;shape=mxgraph.citrix.desktop;fillColor=#66B2FF;gradientColor=#0066CC;fontSize=14;" parent="1" vertex="1">
          <mxGeometry x="810" y="98.00000000000006" width="89" height="98" as="geometry" />
        </mxCell>
        <mxCell id="6a7d8f32e03d9370-24" value="" style="verticalLabelPosition=bottom;aspect=fixed;html=1;verticalAlign=top;strokeColor=none;shape=mxgraph.citrix.hq_enterprise;fillColor=#66B2FF;gradientColor=#0066CC;fontSize=14;" parent="1" vertex="1">
          <mxGeometry x="487" y="1070" width="92" height="88" as="geometry" />
        </mxCell>
        <mxCell id="0UCpNaX0U0LXcG72DFbN-6" value="Client" style="verticalLabelPosition=bottom;aspect=fixed;html=1;verticalAlign=top;strokeColor=none;shape=mxgraph.citrix.desktop;fillColor=#66B2FF;gradientColor=#0066CC;fontSize=14;" vertex="1" parent="1">
          <mxGeometry x="810" y="450" width="89" height="98" as="geometry" />
        </mxCell>
        <mxCell id="0UCpNaX0U0LXcG72DFbN-12" value="&lt;span style=&quot;font-size: 24px;&quot;&gt;VM Server&lt;/span&gt;" style="verticalLabelPosition=top;aspect=fixed;html=1;verticalAlign=bottom;strokeColor=none;shape=mxgraph.citrix.cache_server;fillColor=#66B2FF;gradientColor=#0066CC;fontSize=14;labelPosition=center;align=center;" vertex="1" parent="1">
          <mxGeometry x="640" y="966" width="65.9" height="90.5" as="geometry" />
        </mxCell>
        <mxCell id="0UCpNaX0U0LXcG72DFbN-13" value="010" style="verticalLabelPosition=bottom;sketch=0;aspect=fixed;html=1;verticalAlign=top;strokeColor=none;align=center;outlineConnect=0;shape=mxgraph.citrix.1u_2u_server;fontSize=24;" vertex="1" parent="1">
          <mxGeometry x="220" y="450" width="100" height="39.1" as="geometry" />
        </mxCell>
        <mxCell id="0UCpNaX0U0LXcG72DFbN-14" value="011" style="verticalLabelPosition=bottom;sketch=0;aspect=fixed;html=1;verticalAlign=top;strokeColor=none;align=center;outlineConnect=0;shape=mxgraph.citrix.1u_2u_server;fontSize=24;" vertex="1" parent="1">
          <mxGeometry x="220" y="340" width="100" height="39.1" as="geometry" />
        </mxCell>
        <mxCell id="0UCpNaX0U0LXcG72DFbN-15" value="磁盘阵列" style="verticalLabelPosition=bottom;sketch=0;aspect=fixed;html=1;verticalAlign=top;strokeColor=none;align=center;outlineConnect=0;shape=mxgraph.citrix.datacenter;fontSize=24;" vertex="1" parent="1">
          <mxGeometry x="420" y="340" width="127.5" height="135" as="geometry" />
        </mxCell>
        <mxCell id="0UCpNaX0U0LXcG72DFbN-16" value="HUB" style="fontColor=#0066CC;verticalAlign=top;verticalLabelPosition=bottom;labelPosition=center;align=center;html=1;outlineConnect=0;fillColor=#CCCCCC;strokeColor=#6881B3;gradientColor=none;gradientDirection=north;strokeWidth=2;shape=mxgraph.networks.hub;fontSize=24;" vertex="1" parent="1">
          <mxGeometry x="420" y="152.00000000000003" width="100" height="30" as="geometry" />
        </mxCell>
        <mxCell id="0UCpNaX0U0LXcG72DFbN-17" value="" style="fontColor=#0066CC;verticalAlign=top;verticalLabelPosition=bottom;labelPosition=center;align=center;html=1;outlineConnect=0;fillColor=#CCCCCC;strokeColor=#6881B3;gradientColor=none;gradientDirection=north;strokeWidth=2;shape=mxgraph.networks.wireless_hub;fontSize=24;" vertex="1" parent="1">
          <mxGeometry x="1320" y="595" width="100" height="85" as="geometry" />
        </mxCell>
        <mxCell id="0UCpNaX0U0LXcG72DFbN-18" value="&lt;h2 style=&quot;border-color: var(--border-color);&quot;&gt;内网&lt;/h2&gt;&lt;div style=&quot;border-color: var(--border-color); font-size: 14px;&quot;&gt;192.168.1.1&lt;/div&gt;" style="text;html=1;align=center;verticalAlign=middle;resizable=0;points=[];autosize=1;strokeColor=none;fillColor=none;fontSize=24;" vertex="1" parent="1">
          <mxGeometry x="200" y="102" width="100" height="130" as="geometry" />
        </mxCell>
      </root>
    </mxGraphModel>
  </diagram>
</mxfile>
